<?xml version="1.0" encoding="utf-8"?>
<!-- Generator: Adobe Illustrator 19.0.0, SVG Export Plug-In . SVG Version: 6.00 Build 0)  -->
<svg version="1.1" id="Layer_1" xmlns="http://www.w3.org/2000/svg" xmlns:xlink="http://www.w3.org/1999/xlink" x="0px" y="0px"
	 viewBox="-553.1 347.1 188.1 387.7" style="enable-background:new -553.1 347.1 188.1 387.7;" xml:space="preserve">
<style type="text/css">
	.st0{opacity:0.7;}
	.st1{fill:#FFFFFF;}
	.st2{fill:#1A1A1A;}
	.st3{opacity:0.5;}
	.st4{fill:url(#SVGID_1_);}
	.st5{fill:url(#SVGID_2_);}
	.st6{fill:url(#SVGID_3_);}
	.st7{fill:url(#SVGID_4_);}
	.st8{fill:url(#SVGID_5_);}
	.st9{fill:url(#SVGID_6_);}
	.st10{fill:url(#SVGID_7_);}
	.st11{fill:url(#SVGID_8_);}
	.st12{fill:url(#SVGID_9_);}
	.st13{fill:url(#SVGID_10_);}
	.st14{fill:url(#SVGID_11_);}
</style>
<path d="M-392.1,347.1h-133.2c-14.5,0-26.3,11.8-26.3,26.3c0,5.3,0,330.4,0,335.2c0,14.5,11.8,26.3,26.3,26.3h133.2
	c14.5,0,26.3-11.8,26.3-26.3c0-4.8,0-329.8,0-335.2C-365.8,358.9-377.6,347.1-392.1,347.1z M-368.4,707.7c0,13.6-11,24.6-24.6,24.6
	h-131.3c-13.6,0-24.6-11-24.6-24.6c0-4.7,0-328,0-333.3c0-13.6,11-24.6,24.6-24.6H-393c13.6,0,24.6,11,24.6,24.6
	C-368.4,379.6-368.4,703-368.4,707.7z"/>
<g class="st0">
	<path class="st1" d="M-544.5,356.2c5.3-4.8,12.3-8.5,20.4-8.4l126.3,0.2c16.4,1,30.9,10,31.4,29.1c0,2.1,1.1-16-10.6-24
		c-5.6-4-13.8-5.8-18.8-5.8c-8.1-0.2-115.1-0.3-128.2,0C-535,347.6-540.1,352-544.5,356.2z"/>
</g>
<g>
	<path class="st2" d="M-393,349.7h-131.3c-13.6,0-24.6,11-24.6,24.7c0,5.3,0,328.6,0,333.3c0,13.6,11,24.7,24.6,24.7H-393
		c13.6,0,24.6-11,24.6-24.7c0-4.7,0-328,0-333.3C-368.4,360.7-379.4,349.7-393,349.7z M-369.6,706.9c0,13.3-10.8,24.1-24.1,24.1
		h-129.8c-13.3,0-24.1-10.8-24.1-24.1c0-4.7,0-326.6,0-331.9c0-13.3,10.8-24.1,24.1-24.1h129.8c13.3,0,24.1,10.8,24.1,24.1
		C-369.6,380.4-369.6,702.2-369.6,706.9z"/>
	<path d="M-393,732.4h-131.3c-13.7,0-24.8-11.1-24.8-24.8V374.3c0-13.7,11.1-24.8,24.8-24.8H-393c13.7,0,24.8,11.1,24.8,24.8v333.3
		C-368.2,721.3-379.4,732.4-393,732.4z M-524.3,349.8c-13.5,0-24.5,11-24.5,24.5v333.3c0,13.5,11,24.5,24.5,24.5H-393
		c13.5,0,24.5-11,24.5-24.5V374.3c0-13.5-11-24.5-24.5-24.5H-524.3z M-393.8,731.2h-129.8c-13.4,0-24.2-10.9-24.2-24.2V375.1
		c0-13.4,10.9-24.2,24.2-24.2h129.8c13.4,0,24.2,10.9,24.2,24.2v331.9C-369.5,720.3-380.4,731.2-393.8,731.2z M-523.6,351.1
		c-13.2,0-24,10.8-24,24v331.9c0,13.2,10.8,24,24,24h129.8c13.2,0,24-10.8,24-24V375.1c0-13.2-10.8-24-24-24
		C-393.8,351.1-523.6,351.1-523.6,351.1z"/>
</g>
<g class="st3">
	<path class="st1" d="M-544.5,725.8c5.3,4.8,12.3,8.5,20.4,8.4l126.3-0.2c16.4-1,30.9-10,31.4-29.1c0-2.1,1.1,16-10.6,24
		c-5.6,4-13.8,5.8-18.8,5.8c-8.1,0.2-115.1,0.3-128.2,0C-535,734.4-540.1,730-544.5,725.8z"/>
</g>
<g>
	
		<linearGradient id="SVGID_1_" gradientUnits="userSpaceOnUse" x1="-1461.0598" y1="1320.7458" x2="-1419.5798" y2="1320.7458" gradientTransform="matrix(0 1 1 0 -1686.2673 1889.2998)">
		<stop  offset="0" style="stop-color:#3B3B3B"/>
		<stop  offset="1.850000e-002" style="stop-color:#E6E6E6"/>
		<stop  offset="3.820000e-002" style="stop-color:#333333"/>
		<stop  offset="8.210000e-002" style="stop-color:#000000"/>
		<stop  offset="0.1053" style="stop-color:#666666"/>
		<stop  offset="0.9049" style="stop-color:#313131"/>
		<stop  offset="0.9391" style="stop-color:#000000"/>
		<stop  offset="0.9646" style="stop-color:#333333"/>
		<stop  offset="0.9829" style="stop-color:#CCCCCC"/>
		<stop  offset="1" style="stop-color:#2C2C2C"/>
	</linearGradient>
	<rect x="-365.8" y="428.2" class="st4" width="0.6" height="41.5"/>
	
		<linearGradient id="SVGID_2_" gradientUnits="userSpaceOnUse" x1="-1461.0518" y1="1321.1924" x2="-1419.5778" y2="1321.1924" gradientTransform="matrix(0 1 1 0 -1686.2673 1889.2998)">
		<stop  offset="0" style="stop-color:#A0A0A0"/>
		<stop  offset="6.400000e-002" style="stop-color:#333333"/>
		<stop  offset="0.186" style="stop-color:#8A8A8A"/>
		<stop  offset="0.8064" style="stop-color:#8A8A8A"/>
		<stop  offset="0.9191" style="stop-color:#333333"/>
		<stop  offset="1" style="stop-color:#A0A0A0"/>
	</linearGradient>
	<path class="st5" d="M-365.2,469.7v-41.5l0.3,0.4c-0.2,3-0.1,37.8,0,40.8L-365.2,469.7z"/>
</g>
<g>
	
		<linearGradient id="SVGID_3_" gradientUnits="userSpaceOnUse" x1="-1461.0598" y1="-550.6207" x2="-1433.1798" y2="-550.6207" gradientTransform="matrix(0 1 -1 0 -1103.0991 1889.2998)">
		<stop  offset="0" style="stop-color:#3B3B3B"/>
		<stop  offset="1.850000e-002" style="stop-color:#E6E6E6"/>
		<stop  offset="3.820000e-002" style="stop-color:#333333"/>
		<stop  offset="8.210000e-002" style="stop-color:#000000"/>
		<stop  offset="0.1053" style="stop-color:#666666"/>
		<stop  offset="0.9049" style="stop-color:#313131"/>
		<stop  offset="0.9391" style="stop-color:#000000"/>
		<stop  offset="0.9646" style="stop-color:#333333"/>
		<stop  offset="0.9829" style="stop-color:#CCCCCC"/>
		<stop  offset="1" style="stop-color:#2C2C2C"/>
	</linearGradient>
	<rect x="-552.8" y="428.2" class="st6" width="0.6" height="27.9"/>
	
		<linearGradient id="SVGID_4_" gradientUnits="userSpaceOnUse" x1="-1461.0518" y1="-550.1742" x2="-1433.1777" y2="-550.1742" gradientTransform="matrix(0 1 -1 0 -1103.0991 1889.2998)">
		<stop  offset="0" style="stop-color:#A0A0A0"/>
		<stop  offset="6.400000e-002" style="stop-color:#333333"/>
		<stop  offset="0.186" style="stop-color:#8A8A8A"/>
		<stop  offset="0.8064" style="stop-color:#8A8A8A"/>
		<stop  offset="0.9191" style="stop-color:#333333"/>
		<stop  offset="1" style="stop-color:#A0A0A0"/>
	</linearGradient>
	<path class="st7" d="M-552.8,456.1v-27.9l-0.3,0.4c0.2,3,0.1,24.2,0,27.1L-552.8,456.1z"/>
	
		<linearGradient id="SVGID_5_" gradientUnits="userSpaceOnUse" x1="-551.8625" y1="627.871" x2="-551.8625" y2="655.752" gradientTransform="matrix(1 0 0 -1 0 1084)">
		<stop  offset="0" style="stop-color:#353540"/>
		<stop  offset="5.310000e-002" style="stop-color:#000000"/>
		<stop  offset="0.5184" style="stop-color:#333333"/>
		<stop  offset="0.9646" style="stop-color:#000000"/>
		<stop  offset="1" style="stop-color:#262C31"/>
	</linearGradient>
	<rect x="-552.2" y="428.2" class="st8" width="0.6" height="27.9"/>
</g>
<g>
	
		<linearGradient id="SVGID_6_" gradientUnits="userSpaceOnUse" x1="-1426.1028" y1="-550.6207" x2="-1398.2228" y2="-550.6207" gradientTransform="matrix(0 1 -1 0 -1103.0991 1889.2998)">
		<stop  offset="0" style="stop-color:#3B3B3B"/>
		<stop  offset="1.850000e-002" style="stop-color:#E6E6E6"/>
		<stop  offset="3.820000e-002" style="stop-color:#333333"/>
		<stop  offset="8.210000e-002" style="stop-color:#000000"/>
		<stop  offset="0.1053" style="stop-color:#666666"/>
		<stop  offset="0.9049" style="stop-color:#313131"/>
		<stop  offset="0.9391" style="stop-color:#000000"/>
		<stop  offset="0.9646" style="stop-color:#333333"/>
		<stop  offset="0.9829" style="stop-color:#CCCCCC"/>
		<stop  offset="1" style="stop-color:#2C2C2C"/>
	</linearGradient>
	<rect x="-552.8" y="463.2" class="st9" width="0.6" height="27.9"/>
	
		<linearGradient id="SVGID_7_" gradientUnits="userSpaceOnUse" x1="-1426.0957" y1="-550.1742" x2="-1398.2218" y2="-550.1742" gradientTransform="matrix(0 1 -1 0 -1103.0991 1889.2998)">
		<stop  offset="0" style="stop-color:#A0A0A0"/>
		<stop  offset="6.400000e-002" style="stop-color:#333333"/>
		<stop  offset="0.186" style="stop-color:#8A8A8A"/>
		<stop  offset="0.8064" style="stop-color:#8A8A8A"/>
		<stop  offset="0.9191" style="stop-color:#333333"/>
		<stop  offset="1" style="stop-color:#A0A0A0"/>
	</linearGradient>
	<path class="st10" d="M-552.8,491.1v-27.9l-0.3,0.4c0.2,3,0.1,24.2,0,27.1L-552.8,491.1z"/>
	
		<linearGradient id="SVGID_8_" gradientUnits="userSpaceOnUse" x1="-551.8625" y1="592.915" x2="-551.8625" y2="620.796" gradientTransform="matrix(1 0 0 -1 0 1084)">
		<stop  offset="0" style="stop-color:#353540"/>
		<stop  offset="5.310000e-002" style="stop-color:#000000"/>
		<stop  offset="0.5184" style="stop-color:#333333"/>
		<stop  offset="0.9646" style="stop-color:#000000"/>
		<stop  offset="1" style="stop-color:#262C31"/>
	</linearGradient>
	<rect x="-552.2" y="463.2" class="st11" width="0.6" height="27.9"/>
</g>
<g>
	
		<linearGradient id="SVGID_9_" gradientUnits="userSpaceOnUse" x1="-1494.0677" y1="-550.6207" x2="-1478.9377" y2="-550.6207" gradientTransform="matrix(0 1 -1 0 -1103.0991 1889.2998)">
		<stop  offset="0" style="stop-color:#3B3B3B"/>
		<stop  offset="1.850000e-002" style="stop-color:#E6E6E6"/>
		<stop  offset="3.820000e-002" style="stop-color:#333333"/>
		<stop  offset="8.210000e-002" style="stop-color:#000000"/>
		<stop  offset="0.1053" style="stop-color:#666666"/>
		<stop  offset="0.9049" style="stop-color:#313131"/>
		<stop  offset="0.9391" style="stop-color:#000000"/>
		<stop  offset="0.9646" style="stop-color:#333333"/>
		<stop  offset="0.9829" style="stop-color:#CCCCCC"/>
		<stop  offset="1" style="stop-color:#2C2C2C"/>
	</linearGradient>
	<rect x="-552.8" y="395.2" class="st12" width="0.6" height="15.1"/>
	
		<linearGradient id="SVGID_10_" gradientUnits="userSpaceOnUse" x1="-1494.0608" y1="-550.1742" x2="-1478.9368" y2="-550.1742" gradientTransform="matrix(0 1 -1 0 -1103.0991 1889.2998)">
		<stop  offset="0" style="stop-color:#A0A0A0"/>
		<stop  offset="6.400000e-002" style="stop-color:#333333"/>
		<stop  offset="0.186" style="stop-color:#8A8A8A"/>
		<stop  offset="0.8064" style="stop-color:#8A8A8A"/>
		<stop  offset="0.9191" style="stop-color:#333333"/>
		<stop  offset="1" style="stop-color:#A0A0A0"/>
	</linearGradient>
	<path class="st13" d="M-552.8,410.4v-15.1l-0.3,0.4c0.2,3,0.1,11.4,0,14.4L-552.8,410.4z"/>
	
		<linearGradient id="SVGID_11_" gradientUnits="userSpaceOnUse" x1="-551.8625" y1="673.63" x2="-551.8625" y2="688.761" gradientTransform="matrix(1 0 0 -1 0 1084)">
		<stop  offset="0" style="stop-color:#353540"/>
		<stop  offset="5.310000e-002" style="stop-color:#000000"/>
		<stop  offset="0.5184" style="stop-color:#333333"/>
		<stop  offset="0.9646" style="stop-color:#000000"/>
		<stop  offset="1" style="stop-color:#262C31"/>
	</linearGradient>
	<rect x="-552.2" y="395.2" class="st14" width="0.6" height="15.1"/>
</g>
<path d="M-449.5,734.2h-18.4c-0.4,0-0.7,0-0.8,0.1l-0.8,0.3c-0.2,0.1,0.2,0.2,0.8,0.2h20c0.6,0,1-0.1,0.8-0.2l-0.8-0.3
	C-448.8,734.2-449.1,734.2-449.5,734.2z"/>
</svg>
